<svg xmlns="http://www.w3.org/2000/svg" viewBox="0 13.399999618530273 209.14999389648438 47.400001525878906" data-asc="0.85" width="209.14999389648438" height="47.400001525878906"><defs/><g fill="#fec700"><g transform="translate(0, 0)"><path d="M6.20 44.80Q3.15 44.80 1.57 43.38Q0 41.95 0 39.45Q0 38.75 0.15 37.95Q0.50 35.75 1.95 33.77Q3.40 31.80 5.53 30.20Q7.65 28.60 10.03 27.65Q12.40 26.70 14.55 26.65Q14.50 26.40 14.48 26.10Q14.45 25.80 14.45 25.55Q11.50 25.30 9.03 24.40Q6.55 23.50 5.08 22.02Q3.60 20.55 3.60 18.50Q3.60 17.50 3.95 16.60Q4.65 14.70 6.23 14.05Q7.80 13.40 9.35 13.40Q9.60 13.40 9.88 13.40Q10.15 13.40 10.40 13.45Q11.55 13.55 12.93 14.17Q14.30 14.80 15.30 16Q15.60 16.35 15.60 16.50Q15.60 16.60 15.50 16.60Q15.40 16.60 15.00 16.30Q13.25 14.45 11.00 14.30Q10.80 14.25 10.55 14.25Q10.30 14.25 10.00 14.25Q8.85 14.25 7.55 14.77Q6.25 15.30 5.65 16.90Q5.45 17.40 5.35 17.90Q5.25 18.40 5.25 18.85Q5.25 20.55 6.50 21.80Q7.75 23.05 9.85 23.80Q11.95 24.55 14.45 24.80Q14.60 22.75 15.73 20.77Q16.85 18.80 18.68 17.17Q20.50 15.55 22.78 14.57Q25.05 13.60 27.50 13.60Q27.75 13.60 28.05 13.60Q28.35 13.60 28.65 13.65Q30.25 13.80 31.43 14.52Q32.60 15.25 32.60 16.65Q32.60 17.05 32.45 17.60Q31.80 19.70 30.05 21.22Q28.30 22.75 25.93 23.70Q23.55 24.65 21.00 25.13Q18.45 25.60 16.25 25.60L15.65 25.60L15.40 26.60Q17.35 26.50 18.65 27.25Q19.05 27.50 19.05 27.80Q18.80 28.35 17.60 28.35Q16.20 28.35 15.48 27.90Q14.75 27.45 14.60 26.80Q12.60 27.10 10.63 28.25Q8.65 29.40 7 31.10Q5.35 32.80 4.22 34.80Q3.10 36.80 2.80 38.80Q2.75 39.25 2.67 39.70Q2.60 40.15 2.60 40.55Q2.60 42.05 3.50 42.98Q4.40 43.90 6.85 43.90Q9.05 43.90 11.38 42.80Q13.70 41.70 15.73 39.92Q17.75 38.15 19.15 36.10Q20.55 34.05 20.85 32.20Q20.85 32.10 20.88 31.98Q20.90 31.85 20.90 31.80Q20.90 31.15 20.50 30.73Q20.10 30.30 19.20 30.30Q19.00 30.30 18.80 30.32Q18.60 30.35 18.35 30.40Q16.95 30.65 15.15 31.85Q13.35 33.05 11.78 34.83Q10.20 36.60 9.40 38.60Q9.20 38.70 9.15 38.70Q8.90 38.70 9.05 38.05Q9.55 36.70 10.68 35.17Q11.80 33.65 13.33 32.33Q14.85 31 16.65 30.15Q18.45 29.30 20.30 29.30Q21.75 29.30 22.40 29.92Q23.05 30.55 23.05 31.55Q23.05 33.05 21.85 34.85Q20.90 36.35 19.18 38.05Q17.45 39.75 15.30 41.30Q13.15 42.85 10.80 43.83Q8.45 44.80 6.20 44.80M15.95 24.90L16.30 24.90Q18.85 24.90 21.33 24.35Q23.80 23.80 25.90 22.80Q28.00 21.80 29.43 20.40Q30.85 19 31.25 17.30Q31.30 17.10 31.30 16.75Q31.30 16 30.65 15.45Q30.00 14.90 28.10 14.90Q26.50 14.90 24.35 15.90Q22.20 16.90 20.00 18.95Q18.60 20.25 17.55 21.88Q16.50 23.50 15.95 24.90ZM24.30 42.65Q21.80 42.65 21.80 40.35Q21.80 39.60 22.15 38.60Q22.50 37.60 23.45 35.95Q24.75 33.70 27.13 30.65Q29.50 27.60 32.20 24.70Q34.55 22.05 37.33 19.82Q40.10 17.60 43.10 16.75Q43.55 16.60 44.15 16.50Q44.75 16.40 45.40 16.40Q46.60 16.40 47.45 16.75Q47.85 16.95 48.25 17.27Q48.65 17.60 48.80 18.20Q48.25 17.75 47.55 17.52Q46.85 17.30 45.85 17.30Q43.25 17.30 40.85 19Q38.45 20.70 36.08 23.38Q33.70 26.05 31.10 29.05Q30.10 30.20 28.90 31.90Q27.70 33.60 26.63 35.30Q25.55 37 24.90 38.20Q24.55 38.75 24.38 39.38Q24.20 40 24.20 40.40Q24.20 41.60 25.10 41.60Q26.05 41.60 27.23 40.70Q28.40 39.80 29.48 38.70Q30.55 37.60 31.10 36.95Q31.30 36.95 31.30 37.25Q31.30 37.70 31.10 37.95Q29.10 40.25 27.43 41.45Q25.75 42.65 24.30 42.65ZM32.50 42.65Q30 42.65 30 40.35Q30 39.60 30.35 38.60Q30.70 37.60 31.65 35.95Q32.95 33.70 35.33 30.65Q37.70 27.60 40.40 24.70Q42.75 22.05 45.53 19.82Q48.30 17.60 51.30 16.75Q51.75 16.60 52.35 16.50Q52.95 16.40 53.60 16.40Q54.80 16.40 55.65 16.75Q56.05 16.95 56.45 17.27Q56.85 17.60 57 18.20Q56.45 17.75 55.75 17.52Q55.05 17.30 54.05 17.30Q51.45 17.30 49.05 19Q46.65 20.70 44.28 23.38Q41.90 26.05 39.30 29.05Q38.30 30.20 37.10 31.90Q35.90 33.60 34.83 35.30Q33.75 37 33.10 38.20Q32.75 38.75 32.58 39.38Q32.40 40 32.40 40.40Q32.40 41.60 33.30 41.60Q34.25 41.60 35.43 40.70Q36.60 39.80 37.68 38.70Q38.75 37.60 39.30 36.95Q39.50 36.95 39.50 37.25Q39.50 37.70 39.30 37.95Q37.30 40.25 35.63 41.45Q33.95 42.65 32.50 42.65ZM40.20 42.55Q38.35 42.55 38.35 40.45Q38.35 39.25 39.05 37.58Q39.75 35.90 41.15 34.05Q42.15 32.80 43.60 31.38Q45.05 29.95 46.78 28.65Q48.50 27.35 50.30 26.52Q52.10 25.70 53.80 25.70Q54.55 25.70 54.85 25.93Q55.15 26.15 55.25 26.40Q55.35 26.60 55.28 26.70Q55.20 26.80 55.10 26.75Q54.90 26.65 54.30 26.65Q52.50 26.65 50.03 28.38Q47.55 30.10 45.15 32.85Q43.45 34.75 42.35 36.58Q41.25 38.40 40.90 39.60Q40.80 40 40.80 40.30Q40.80 41 41.35 41Q41.70 41 42.30 40.67Q42.90 40.35 43.85 39.55Q45.35 38.25 46.83 36.50Q48.30 34.75 49.75 32.92Q51.20 31.10 52.58 29.55Q53.95 28 55.20 27.20Q56.80 26.15 57.43 26Q58.05 25.85 58.45 25.80Q58.20 26.10 57.35 27.20Q56.50 28.30 55.55 29.52Q54.60 30.75 54.00 31.55Q53.10 32.85 52.08 34.35Q51.05 35.85 50.23 37.17Q49.40 38.50 49.10 39.35Q48.85 40.20 48.85 40.60Q48.85 41.40 49.50 41.40Q49.95 41.40 50.58 41.02Q51.20 40.65 51.85 40.15Q52.70 39.45 53.45 38.67Q54.20 37.90 55.00 36.95Q55.20 36.95 55.20 37.25Q55.20 37.70 55.00 37.95Q54.35 38.70 53.43 39.60Q52.50 40.50 51.60 41.20Q50.95 41.75 50.10 42.15Q49.25 42.55 48.45 42.55Q47.30 42.55 46.85 42Q46.40 41.45 46.40 40.60Q46.40 39.60 46.85 38.42Q47.30 37.25 47.85 36.20Q47.20 37 46.20 38.13Q45.20 39.25 44.40 40Q43.30 41 42.30 41.77Q41.30 42.55 40.20 42.55ZM69.90 43.70Q67.90 43.70 66.58 43.15Q65.25 42.60 64.50 41.70Q63.60 40.40 63.60 38.70Q63.60 36.75 64.78 34.60Q65.95 32.45 67.95 30.70Q70.30 28.60 73.35 27.27Q76.40 25.95 79.85 25.95Q80.50 25.95 81.13 26Q81.75 26.05 82.40 26.15Q83.00 26.20 83.00 26.40Q83.00 26.50 82.65 26.50Q82.25 26.50 81.83 26.45Q81.40 26.40 80.95 26.40Q78.95 26.40 76.80 27.17Q74.65 27.95 72.70 29.20Q70.75 30.45 69.30 31.95Q68.10 33.10 66.98 34.80Q65.85 36.50 65.45 38.50Q65.40 38.75 65.38 39.02Q65.35 39.30 65.35 39.55Q65.35 40.95 66.28 41.90Q67.20 42.85 69.30 42.85Q71.55 42.85 73.53 41.77Q75.50 40.70 77.25 39.05Q79.00 37.40 80.50 35.75Q81.95 34.20 83.65 31.92Q85.35 29.65 87.20 27.20L83.20 27.20L83.75 26.50L87.75 26.50L89.85 23.85Q91.05 22.40 92.40 20.92Q93.75 19.45 95.08 18.20Q96.40 16.95 97.50 16.30Q95.10 16 92.65 15.67Q90.20 15.35 87.60 15.25Q87.15 15.25 86.70 15.22Q86.25 15.20 85.85 15.20Q82.50 15.20 79.53 15.95Q76.55 16.70 74.95 18.85Q74.50 19.45 74.30 20.05Q74.10 20.65 74.10 21.20Q74.10 21.90 74.45 22.50Q74.65 22.70 74.90 22.92Q75.15 23.15 75.35 23.15Q75.15 23.35 74.80 23.35Q74.45 23.35 74.13 23.17Q73.80 23 73.60 22.80Q73.10 22.25 72.85 21.52Q72.60 20.80 72.60 20.10Q72.60 18.70 73.30 17.75Q76.00 14.05 82.40 14.05Q82.80 14.05 83.23 14.05Q83.65 14.05 84.05 14.10Q87.75 14.30 91.38 14.85Q95 15.40 99 15.40Q101.20 15.40 102.98 15.17Q104.75 14.95 105.35 14.35L105.45 14.35Q105.65 14.35 105.83 14.47Q106.00 14.60 106.00 14.90Q106.00 15.75 105.05 16.17Q104.10 16.60 103.10 16.65Q101.90 16.65 100.70 16.57Q99.50 16.50 98.35 16.40L98.30 16.40Q97.05 17.15 95.05 19.15Q93.05 21.15 91.15 24.15L89.65 26.50L92.75 26.50L92.15 27.20L89.25 27.20Q87.35 30.25 85.30 33.20Q83.25 36.15 80.95 38.52Q78.65 40.90 75.93 42.30Q73.20 43.70 69.90 43.70ZM101.10 23.70Q100.10 23.70 100.10 22.90Q100.10 22.65 100.25 22.35Q100.50 21.75 101.13 21.27Q101.75 20.80 102.35 20.80Q103.30 20.80 103.30 21.60Q103.30 22.35 102.60 23Q101.90 23.65 101.10 23.70M90.25 42.60Q88.90 42.60 88.33 41.88Q87.75 41.15 87.75 40.05Q87.75 38.60 88.63 36.92Q89.50 35.25 90.80 33.58Q92.10 31.90 93.45 30.42Q94.80 28.95 95.80 28Q96.75 27.05 97.75 26.60Q98.75 26.15 99.48 25.97Q100.20 25.80 100.20 25.80Q99.10 27.05 97.20 29.35Q95.30 31.65 93.45 34.25Q93.30 34.45 92.75 35.25Q92.20 36.05 91.53 37.10Q90.85 38.15 90.38 39.15Q89.90 40.15 89.90 40.75Q89.90 41.70 90.90 41.70Q91.65 41.70 92.53 41.15Q93.40 40.60 94.30 39.80Q95.20 39 95.93 38.23Q96.65 37.45 97.05 36.95Q97.25 36.95 97.25 37.25Q97.25 37.70 97.05 37.95Q95.15 40.15 93.63 41.38Q92.10 42.60 90.25 42.60ZM98.20 42.70Q96.95 42.70 96.45 42.10Q95.95 41.50 95.95 40.55Q95.95 38.90 97.15 36.80Q97.85 35.60 99.08 34.02Q100.30 32.45 101.85 30.67Q103.40 28.90 104.95 27.20L101.60 27.20L102.15 26.50L105.60 26.50Q107.00 25.05 108.23 23.77Q109.45 22.50 110.25 21.70Q112.45 19.50 114.33 18.35Q116.20 17.20 117.30 17.20Q116.50 17.90 114.98 19.40Q113.45 20.90 111.63 22.75Q109.80 24.60 108.05 26.50L111.50 26.50L110.95 27.20L107.45 27.20Q106.50 28.30 105.68 29.25Q104.85 30.20 104.25 31.05Q101.90 34.25 100.45 36.30Q99.00 38.35 98.55 39.40Q98.20 40.25 98.20 40.80Q98.20 41.75 99.10 41.75Q99.85 41.75 100.70 41.25Q101.95 40.55 103.23 39.23Q104.50 37.90 105.30 36.95Q105.50 36.95 105.50 37.25Q105.50 37.70 105.30 37.95Q103.40 40.15 101.75 41.42Q100.10 42.70 98.20 42.70ZM95.70 60.80Q94.30 60.80 93.75 60.17Q93.20 59.55 93.20 58.60Q93.20 57.55 93.68 56.38Q94.15 55.20 94.75 54.17Q95.35 53.15 95.70 52.70Q97.05 50.90 98.83 49.15Q100.60 47.40 102.60 46Q104.60 44.60 106.60 44Q106.90 44 106.90 44.15Q106.85 44.20 106.80 44.35Q106.75 44.50 106.65 44.55Q105.25 45 103.38 46.33Q101.50 47.65 99.63 49.45Q97.75 51.25 96.40 53.20Q95.45 54.50 94.88 55.80Q94.30 57.10 94.30 58.20Q94.30 58.95 94.65 59.45Q95.00 59.95 95.90 59.95Q96.40 59.95 96.85 59.75Q98.10 59.30 99.78 58Q101.45 56.70 103.30 54.80Q105.15 52.90 106.95 50.70Q108.75 48.50 110.20 46.25Q111.65 44 112.53 41.95Q113.40 39.90 113.40 38.35Q113.40 37.45 113.05 36.80Q112.65 36.90 112.18 37.40Q111.70 37.90 111.15 38.33Q110.60 38.75 109.95 38.75Q109.00 38.75 109.00 37.85Q109.00 37.20 109.53 36.80Q110.05 36.40 110.78 36.17Q111.50 35.95 112.00 35.90L115.60 32.20Q117.35 30.35 119.08 28.92Q120.80 27.50 122.60 26.65Q121.65 26.65 120.13 26.85Q118.60 27.05 116.93 27.50Q115.25 27.95 113.80 28.80Q112.35 29.65 111.60 30.95Q111.55 31.20 111.30 31.45Q111.05 31.70 110.90 31.70Q110.75 31.70 110.75 31.45Q110.85 30.25 111.65 28.82Q112.45 27.40 113.60 26.40Q114.75 25.40 115.90 25.40Q117.15 25.40 118.63 25.57Q120.10 25.75 121.50 25.75Q122.65 25.75 123.65 25.65Q124.65 25.55 125.15 25.35Q125.05 25.70 124.70 26.05Q124.35 26.40 123.70 26.55Q122.65 27.15 121.30 28.32Q119.95 29.50 118.48 30.92Q117.00 32.35 115.58 33.67Q114.15 35 112.95 35.85Q114.40 36.05 115.05 37.10Q115.70 38.15 115.70 39.60Q115.70 41.60 114.70 43.95Q113.70 46.30 112.00 48.67Q110.30 51.05 108.18 53.23Q106.05 55.40 103.80 57.10Q101.55 58.80 99.45 59.80Q97.35 60.80 95.70 60.80ZM113.30 54.80Q111.80 54.80 111.25 54.58Q110.70 54.35 110.70 54.20Q110.70 54 111.05 54Q111.30 54 111.55 54.02Q111.80 54.05 112.00 54.05Q113.80 54.05 115.60 52.95Q117.40 51.85 119.10 50.02Q120.80 48.20 122.35 46Q123.90 43.80 125.15 41.65Q125.60 40.85 126.30 39.58Q127.00 38.30 127.85 36.80Q126.90 37.90 126.10 38.75Q125.30 39.60 124.90 40Q123.80 41 122.80 41.73Q121.80 42.45 120.70 42.55Q118.85 42.65 118.85 40.45Q118.85 39.25 119.55 37.58Q120.25 35.90 121.65 34.05Q122.65 32.80 124.10 31.38Q125.55 29.95 127.28 28.65Q129 27.35 130.80 26.52Q132.60 25.70 134.30 25.70Q135.05 25.70 135.35 25.93Q135.65 26.15 135.75 26.40Q135.80 26.60 135.75 26.75Q137.20 25.80 138.45 25.80Q138.80 25.80 138.90 25.90Q136.80 27.20 135.18 29.23Q133.55 31.25 132.15 33.75Q130.75 36.25 129.38 38.90Q128 41.55 126.48 44.15Q124.95 46.75 123.05 48.95Q120.80 51.55 118.20 53.17Q115.60 54.80 113.30 54.80M121.85 41Q122.20 41 122.80 40.67Q123.40 40.35 124.35 39.55Q125.95 38.15 127.60 36.13Q129.25 34.10 130.80 32.10Q131.95 30.50 133.18 29.05Q134.40 27.60 135.70 26.80Q135.60 26.80 135.60 26.75Q135.40 26.65 134.80 26.65Q133 26.65 130.53 28.38Q128.05 30.10 125.65 32.85Q123.95 34.75 122.85 36.58Q121.75 38.40 121.40 39.60Q121.30 40 121.30 40.30Q121.30 41 121.85 41ZM137.40 42.85Q135.10 42.85 134.15 41.85Q133.20 40.85 133.20 39.15Q133.20 37.50 134.13 35.67Q135.05 33.85 136.45 32.20Q137.30 31.20 138.55 30.10Q139.80 29 141.25 28.02Q142.70 27.05 144.13 26.43Q145.55 25.80 146.65 25.80Q147.25 25.80 147.75 26.07Q148.25 26.35 148.25 27.25Q148.25 28.50 147.05 29.63Q145.85 30.75 144.35 31.70Q142.65 32.80 140.80 33.55Q138.95 34.30 137.60 34.70Q136.85 35.90 136.40 37.15Q135.95 38.40 135.95 39.60Q135.95 40.90 136.58 41.38Q137.20 41.85 138.05 41.85Q139.60 41.85 140.88 41.13Q142.15 40.40 143.25 39.25Q144.35 38.10 145.35 36.95Q145.55 36.95 145.55 37.25Q145.55 37.70 145.35 37.95Q144.35 39.10 143.18 40.25Q142.00 41.40 140.60 42.13Q139.20 42.85 137.40 42.85M138.20 34Q139.50 33.55 141.28 32.75Q143.05 31.95 144.40 31Q144.70 30.80 145.45 30.17Q146.20 29.55 146.85 28.77Q147.50 28 147.50 27.40Q147.50 26.60 146.70 26.60Q145.85 26.60 144.78 27.35Q143.70 28.10 143.05 28.65Q141.85 29.75 140.55 31.10Q139.25 32.45 138.20 34ZM151.35 42.60Q150.10 42.60 149.58 41.95Q149.05 41.30 149.05 40.35Q149.05 39.75 149.20 39.15Q149.50 37.65 150.70 36Q151.90 34.35 153.55 32.70Q155.20 31.05 156.93 29.70Q158.65 28.35 160.00 27.45Q159.40 27.55 158.45 27.55Q157.35 27.55 156.15 27.42Q154.95 27.30 154.50 27Q154.30 27.35 153.53 28.32Q152.75 29.30 151.63 30.65Q150.50 32 149.30 33.40Q148.10 34.80 147.05 36.02Q146.00 37.25 145.35 37.95Q144.70 38.70 143.58 39.73Q142.45 40.75 141.33 41.55Q140.20 42.35 139.45 42.35Q139.10 42.35 139.03 42.20Q138.95 42.05 138.95 42Q139.75 42 141.33 40.88Q142.90 39.75 145.35 36.95Q148.30 33.55 150.93 29.63Q153.55 25.70 155.65 21.45L155.70 21.45Q156.35 21.45 156.35 22.70Q156.35 23.85 155.55 25.40Q155.35 25.75 154.95 26.35Q155.95 26.55 156.95 26.63Q157.95 26.70 158.80 26.70Q159.50 26.70 160.10 26.65Q160.70 26.60 161.05 26.50Q161.50 26.50 161.53 26.67Q161.55 26.85 161.45 26.95Q161.25 27.15 160.63 27.85Q160.00 28.55 159.23 29.38Q158.45 30.20 157.80 30.92Q157.15 31.65 156.85 32Q155.30 33.85 153.78 36.05Q152.25 38.25 151.65 40Q151.45 40.45 151.45 40.85Q151.45 41.55 152.10 41.55Q152.80 41.55 153.85 40.73Q154.90 39.90 155.98 38.80Q157.05 37.70 157.70 36.95Q157.90 36.95 157.90 37.25Q157.90 37.70 157.70 37.95Q155.40 40.65 153.98 41.63Q152.55 42.60 151.35 42.60ZM158.60 42.55Q156.75 42.55 156.75 40.45Q156.75 39.25 157.45 37.58Q158.15 35.90 159.55 34.05Q160.55 32.80 162.00 31.38Q163.45 29.95 165.18 28.65Q166.90 27.35 168.70 26.52Q170.50 25.70 172.20 25.70Q172.95 25.70 173.25 25.93Q173.55 26.15 173.65 26.40Q173.75 26.60 173.68 26.70Q173.60 26.80 173.50 26.75Q173.30 26.65 172.70 26.65Q170.90 26.65 168.43 28.38Q165.95 30.10 163.55 32.85Q161.85 34.75 160.75 36.58Q159.65 38.40 159.30 39.60Q159.20 40 159.20 40.30Q159.20 41 159.75 41Q160.10 41 160.70 40.67Q161.30 40.35 162.25 39.55Q163.75 38.25 165.23 36.50Q166.70 34.75 168.15 32.92Q169.60 31.10 170.98 29.55Q172.35 28 173.60 27.20Q175.20 26.15 175.83 26Q176.45 25.85 176.85 25.80Q176.60 26.10 175.75 27.20Q174.90 28.30 173.95 29.52Q173.00 30.75 172.40 31.55Q171.50 32.85 170.48 34.35Q169.45 35.85 168.63 37.17Q167.80 38.50 167.50 39.35Q167.25 40.20 167.25 40.60Q167.25 41.40 167.90 41.40Q168.35 41.40 168.98 41.02Q169.60 40.65 170.25 40.15Q171.10 39.45 171.85 38.67Q172.60 37.90 173.40 36.95Q173.60 36.95 173.60 37.25Q173.60 37.70 173.40 37.95Q172.75 38.70 171.83 39.60Q170.90 40.50 170.00 41.20Q169.35 41.75 168.50 42.15Q167.65 42.55 166.85 42.55Q165.70 42.55 165.25 42Q164.80 41.45 164.80 40.60Q164.80 39.60 165.25 38.42Q165.70 37.25 166.25 36.20Q165.60 37 164.60 38.13Q163.60 39.25 162.80 40Q161.70 41 160.70 41.77Q159.70 42.55 158.60 42.55ZM174.65 42.65Q172.15 42.65 172.15 40.35Q172.15 39.60 172.50 38.60Q172.85 37.60 173.80 35.95Q175.10 33.70 177.48 30.65Q179.85 27.60 182.55 24.70Q184.90 22.05 187.68 19.82Q190.45 17.60 193.45 16.75Q193.90 16.60 194.50 16.50Q195.10 16.40 195.75 16.40Q196.95 16.40 197.80 16.75Q198.20 16.95 198.60 17.27Q199.00 17.60 199.15 18.20Q198.60 17.75 197.90 17.52Q197.20 17.30 196.20 17.30Q193.60 17.30 191.20 19Q188.80 20.70 186.43 23.38Q184.05 26.05 181.45 29.05Q180.45 30.20 179.25 31.90Q178.05 33.60 176.98 35.30Q175.90 37 175.25 38.20Q174.90 38.75 174.73 39.38Q174.55 40 174.55 40.40Q174.55 41.60 175.45 41.60Q176.40 41.60 177.58 40.70Q178.75 39.80 179.83 38.70Q180.90 37.60 181.45 36.95Q181.65 36.95 181.65 37.25Q181.65 37.70 181.45 37.95Q179.45 40.25 177.78 41.45Q176.10 42.65 174.65 42.65ZM182.35 42.55Q180.50 42.65 180.50 40.45Q180.50 39.25 181.20 37.58Q181.90 35.90 183.30 34.05Q184.40 32.65 186.10 31Q187.80 29.35 189.80 27.98Q191.80 26.60 193.80 26Q194.35 25.85 194.95 25.77Q195.55 25.70 196.40 25.70Q197.20 25.70 197.20 25.90Q197.20 26.15 196.50 26.30Q195.90 26.45 195.05 26.80Q194.20 27.15 193.50 27.55Q192.05 28.35 190.45 29.73Q188.85 31.10 187.30 32.85Q185.60 34.75 184.50 36.58Q183.40 38.40 183.05 39.60Q182.95 40 182.95 40.30Q182.95 41 183.50 41Q183.85 41 184.45 40.67Q185.05 40.35 186.00 39.55Q187.90 37.95 189.83 35.90Q191.75 33.85 193.30 31.65Q194.50 29.95 196.10 28.02Q197.70 26.10 199.45 24.27Q201.20 22.45 202.88 20.95Q204.55 19.45 205.90 18.55Q207.45 17.50 208.08 17.35Q208.70 17.20 209.15 17.20Q208.70 17.55 207.23 18.97Q205.75 20.40 203.73 22.55Q201.70 24.70 199.53 27.20Q197.35 29.70 195.55 32.20Q194.15 34.10 192.90 36.13Q191.65 38.15 191.25 39.35Q191.10 39.75 191.05 40.05Q191.00 40.35 191.00 40.60Q191.00 41.40 191.65 41.40Q192.10 41.40 192.73 41.02Q193.35 40.65 194.00 40.15Q194.85 39.45 195.68 38.60Q196.50 37.75 197.15 36.95Q197.35 36.95 197.35 37.25Q197.35 37.70 197.15 37.95Q196.50 38.70 195.58 39.60Q194.65 40.50 193.75 41.20Q193.10 41.75 192.25 42.15Q191.40 42.55 190.60 42.55Q189.45 42.55 188.98 42Q188.50 41.45 188.50 40.60Q188.50 39.75 188.85 38.75Q189.20 37.75 189.70 36.80Q188.85 37.70 187.85 38.73Q186.85 39.75 186.55 40Q185.45 41 184.45 41.73Q183.45 42.45 182.35 42.55Z"/></g></g></svg>